<svg viewBox="0 0 1024 1024" xmlns="http://www.w3.org/2000/svg" width="200" height="200">
    <path d="M 512 85.3333 C 276.267 85.3333 85.3333 276.267 85.3333 512 s 190.933 426.667 426.667 426.667 s 426.667 -190.933 426.667 -426.667 S 747.733 85.3333 512 85.3333 Z M 512 704 c -106.027 0 -192 -85.9733 -192 -192 s 85.9733 -192 192 -192 s 192 85.9733 192 192 S 618.027 704 512 704 Z M 512 469.333 c -23.4667 0 -42.6667 19.2 -42.6667 42.6667 s 19.2 42.6667 42.6667 42.6667 s 42.6667 -19.2 42.6667 -42.6667 S 535.467 469.333 512 469.333 Z"
          fill="#C5AB6E"/>
</svg>